<svg xmlns="http://www.w3.org/2000/svg" viewBox="0 0 343 326">
	<path fill="#7d7b42" d="M73 325.8c-8.4-8.3-8.3-18-4.3-28.1 2.3-5.9 1.1-10.3-4.1-13.8-2.2-1.5-4.5-4.2-3.4-6.7 2-4.4.3-7.3-2-10.6-1.3-1.9-1.4-4.3-.3-6.7 1.7-3.3 1.1-6.8.2-10.2-1-3.8-2.9-5.8-7.3-5.9-11.1-.2-15.3-7.1-10.6-17 6-12.9 11.2-26.3 19.9-37.9 1.9-2.6 3.1-5.7 1.1-8.9-4.8-7.3-3.5-15.5-2.6-23.3 1.5-13.3 4.6-26.4 7.7-39.5.5-2 .2-3.2-1-4.9a62 62 0 0 1-10.6-20.2c-4.6-15.3.9-27.5 12.3-37.3 23.4-20.1 50.5-33 80.4-40.1a143 143 0 0 1 56.8-2c13.6 2.2 27.1 4.7 40.4 8.1 16.9 4.4 32.2 10.7 43.4 25.3 10.7 14 22.8 26.9 30.2 43.1a72.2 72.2 0 0 1 5.2 36.5c-.9 10.9-1.4 21.8-3.4 32.6-4.4 24-13.9 46-25.2 67.4-8.2 15.4-17.1 30.5-21.3 47.8-.9 3.7-.6 7.3-.6 10.9 0 3.1-1 4.1-3.8 2.6-3.3-1.7-4.1-.4-4.3 3a95.7 95.7 0 0 0 6.1 35.6l-22.5.2H78.9c-1.9.2-3.9.1-5.9 0zM219 135c-3.1-2-5.6-6.8-9.8-.7-1.4 2.1-4.5.8-4.2-2.7.2-2.9-1-3.8-3.8-3.7-2.6.1-5.3-.1-5.1 3.7.1 1.9-.5 3-2.5 3.7-2.2.8-3-.3-3.9-1.8-1-1.6-2.1-3.2-4.3-1.4-1.7 1.4-4.6 2.1-2.7 5.3.8 1.4 1.7 2.8.1 4.4-1.7 1.7-3.1.5-4.5-.2-3.6-1.8-3.5 1.8-4.8 3.3-1.6 1.7-1.1 2.9.9 3.7 1.6.7 3 1.6 2.7 3.7-.4 2.5-2.2 2.6-4.1 2.6-3.2-.1-2.8 2.1-2.8 4.1 0 1.8-.3 3.5 2.5 3.9 5.7.8 5.9 1.5 1.7 6.2-2 2.3-.3 3.7.7 5.2.8 1.3 1.3 2.8 3.8 1.6 4.3-2.1 5.8-.7 4.6 4-.9 3.5 1.8 3.8 3.4 5.1 1.9 1.5 3 .3 3.8-1.4.8-1.6 2-2 3.7-1.8 1.9.3 1.8 1.8 1.7 3.1-.1 3.5 2.5 2.9 4.5 2.9 2.2.1 4.6.4 4.3-3.1-.1-1.7.5-2.9 2.2-3.4 2.1-.7 2.7.9 3.2 2.2 1.1 2.5 2.6 1.9 4.3.9 1.8-1.1 4.2-1.8 2.8-4.8-.7-1.4-1.9-2.7-.3-4.5 1.8-1.9 3.3-.6 4.9.1 3.1 1.4 3.6-1.3 4.7-3 1.2-1.9 1.2-3.3-1.2-4.3-1.2-.5-2.7-1.1-2.2-2.8.5-1.6 1.2-3.4 3.2-3.3 3.6.2 3.3-2.2 3.4-4.6.1-2.6-.9-3.7-3.5-3.5-1.6.1-2.5-.6-3-2-.7-1.7.4-2.5 1.6-3.1 2.7-1.3 2.6-3 1.2-5.2-.7-1.1-1-2.4-1.4-3.7 3.6 1.3 5.8-.2 7.1-3.6.7-1.8 2.2-3 4.4-2.1 1.6.7 4 .8 3.5 3.4-1.3 6.9 3.1 6.4 7.7 6.4 3.6 0 4.9-1.3 4.4-4.7-.6-3.8 1.6-5.1 4.7-5.4 2.6-.2 3.3 2.2 4.1 3.8 1.3 3 2.8 3.2 5.2 1.2 1-.8 2.3-1.4 3.4-2 2.7-1.5 3.5-3.3 1.3-6-1.5-1.8-2-3.5.1-5.6 2.1-2.2 3.8-2 6-.6 5.4 3.5 5.8-2 7.9-4.4 2.6-3 .6-4.8-2.1-6.1-2.3-1.1-3.5-2.2-2.7-5.2.8-3.3 2.9-3.4 5.2-3.1 4.1.5 5.3-1.3 4.9-5.1-.3-3.3 1-7.5-4.9-7-2.1.2-4.5.4-5.1-2.6-.5-2.8.3-4.9 3.1-5.9 3.7-1.4 3.1-3.9 1.2-6.3-1.9-2.2-2.3-7.8-7.4-3.8-1.9 1.5-3.9 2.3-6.2 0-2.3-2.2-1.6-3.9-.1-6 3.1-4.1-.1-5.7-3.1-7.5-3.1-1.8-5.7-2.8-7.4 1.6-.6 1.6-1 4-4.1 3.1-2.7-.8-4.5-1.9-4.1-5.1.2-1.6.8-3.9-.6-4.7-3-1.6-6.6-1-9.7-.5-2.7.5-1.2 3.3-1.5 5.1-.3 1.8.8 4.3-2.4 4.6-2.6.2-5.4 2.3-7.2-1.7-.7-1.5-1.4-4.1-3.4-3.9-3.2.4-5.7 2.7-8 4.8-2 1.8.3 3.9 1.3 5.1 2.8 3.5 1.1 5.7-1.8 7.1-1.9 1-3.6-1.3-5.4-1.9-1.3-.4-2.8-2.4-3.9-.6a25.5 25.5 0 0 0-4 8.5c-.5 2.5 2.8 2.9 4.6 3.8 2 1.1 2.4 2.4 1.7 4.5-.6 1.8-1.3 3.1-3.7 3.2-5.8.2-4.8-3.9-4.8-7.2-.1-7.6.5-6.8-6.6-6.8-3.5 0-6.6-4.3-5.2-7.3 1-2 3.2-2.9 5.1-3.8 3.1-1.5 3.1-3.5 1.6-6-.7-1.1-1.5-2.2-2.1-3.4-3.2-5.5-3.4-5.7-8.6-2.2-2.9 1.9-4.8 1.6-7.3-.9-3-2.9-1.2-5 .4-7.4 2.1-3 2.9-5.7-1.6-7.4-1.1-.4-2-1.1-2.9-1.9-3.7-3-6.4-3.2-8.4 2-1 2.8-2.8 4.8-6.9 3.6-4.2-1.1-3.7-3.8-3.3-6.4.8-5.3-1.6-6.9-6.4-6.1h-2c-6.6 0-6.7 0-6.6 6.8 0 2.8-.2 4.4-3.6 5.8-5.7 2.4-7.6-1-9.4-4.7-1.6-3.2-3.5-3.7-6.2-1.4a29 29 0 0 1-2.9 1.9c-5.7 3.7-5.7 3.8-2.1 9.3 1.5 2.2 3 4.1.2 6.9-2.6 2.5-4.5 2.5-7.3.7-5.9-3.8-6-3.7-9.1 2.5-3.4 6.7-3.4 6.8 3.1 10.7 2.6 1.5 3.1 3.2 2.3 6-.8 2.8-2.2 3.6-5 3.6-7.2.1-7.2.2-7.1 7.2v1c0 6.7.1 7 6.7 6.6 4.2-.3 5.5 1.7 6.1 5.1.6 3.5-2.5 3.9-4.3 5.2-1.5 1.2-4.7 1.8-4 3.8 1.4 3.8 3.3 7.9 6.6 10.3 2.1 1.5 4.3-1 6.1-2.2 2.4-1.6 4.2-1.2 6.2.7 1.9 1.8 2.8 3.2 1.4 6-3.3 6.5-3.2 6.6 3.4 10.4 5.9 3.4 6 3.5 8.8-2.4 1.5-3.2 3.1-3.9 6.6-2.9 3.1.8 3.4 2.5 3.5 5 .1 2.2-1.2 5.7.9 6.5 4 1.5 8.7 1.2 12.7.1 2.6-.7 1-4.1 1.2-6.3.2-2.3-.2-4.5 3.1-5.3 3.1-.8 5.3-.9 6.9 2.4.8 1.7 1.3 4.5 3.5 4.5 4.2.1 7.3-3 10.4-5.3 2.9-2.2-.1-4.2-1.1-6-1.5-2.7-2.1-4.8.6-7.4 2.8-2.8 4.8-1.7 7.4 0 1.7 1.1 3.7 3.2 5.7 1a22 22 0 0 0 5.3-10c.6-2.9-3.3-3.3-5.2-4.5-2.9-1.8-2.3-3.7-1.8-6.4.6-3 2.2-3 4.5-3.2 4.7-.5 6.3 1.3 5.8 5.8-.4 2.9-.3 5.8 4.2 5.3 2.1-.2 4.8-.9 5.7 2.4.9 3.4-1.1 4.7-3.6 6.1-1.1.6-3.5 1.2-2.7 3 1.3 2.8 2.9 5.7 5.1 7.9 1.7 1.7 3.6-.7 5.2-1.7 2.1-1.3 3.6-.6 5.3.9 1.7 1.5 1.8 3 .6 4.8-1 2.1-2 3.7-2.9 5.2z"/>
	<path fill="#465461" d="M219 135l2.8-4.6c1.2-1.8 1.1-3.3-.6-4.8-1.7-1.5-3.2-2.2-5.3-.9-1.6 1-3.5 3.3-5.2 1.7a25 25 0 0 1-5.1-7.9c-.8-1.7 1.6-2.3 2.7-3 2.5-1.4 4.5-2.8 3.6-6.1-.9-3.3-3.6-2.6-5.7-2.4-4.5.5-4.5-2.4-4.2-5.3.6-4.5-1.1-6.4-5.8-5.8-2.3.3-4 .3-4.5 3.2-.5 2.7-1.1 4.5 1.8 6.4 1.9 1.2 5.8 1.6 5.2 4.5a22 22 0 0 1-5.3 10c-2.1 2.2-4 .2-5.7-1-2.5-1.7-4.6-2.7-7.4 0-2.7 2.6-2.1 4.7-.6 7.4 1 1.8 4 3.8 1.1 6-3.1 2.3-6.2 5.4-10.4 5.3-2.2 0-2.7-2.9-3.5-4.5-1.7-3.3-3.8-3.2-6.9-2.4-3.3.8-2.9 3-3.1 5.3-.2 2.2 1.4 5.6-1.2 6.3a21.2 21.2 0 0 1-12.7-.1c-2.1-.8-.8-4.3-.9-6.5-.1-2.5-.4-4.2-3.5-5-3.5-1-5.1-.2-6.6 2.9-2.8 5.9-3 5.8-8.8 2.4-6.6-3.8-6.8-3.9-3.4-10.4 1.4-2.7.5-4.2-1.4-6-2-1.9-3.7-2.3-6.2-.7-1.8 1.2-4 3.8-6.1 2.2a21.4 21.4 0 0 1-6.6-10.3c-.7-2 2.5-2.6 4-3.8 1.8-1.4 5-1.8 4.3-5.2-.6-3.5-1.9-5.4-6.1-5.1-6.7.5-6.7.1-6.7-6.5v-1c-.1-7-.1-7.1 7.1-7.2 2.7 0 4.2-.8 5-3.6.8-2.8.3-4.5-2.3-6-6.5-3.9-6.5-4-3.1-10.7 3.1-6.2 3.2-6.3 9.1-2.5 2.8 1.8 4.8 1.8 7.3-.7 2.8-2.8 1.2-4.6-.2-6.9-3.6-5.5-3.6-5.5 2.1-9.3l2.9-1.9c2.7-2.3 4.6-1.8 6.2 1.4 1.9 3.7 3.7 7.1 9.4 4.7 3.4-1.4 3.6-3 3.6-5.8 0-6.8 0-6.8 6.6-6.8h2c4.9-.8 7.2.8 6.4 6.1-.4 2.6-.9 5.3 3.3 6.4 4.1 1.1 5.9-.9 6.9-3.6 2-5.2 4.7-5 8.4-2 .9.7 1.9 1.5 2.9 1.9 4.5 1.7 3.7 4.3 1.6 7.4-1.6 2.3-3.4 4.4-.4 7.4 2.5 2.5 4.4 2.8 7.3.9 5.2-3.5 5.5-3.3 8.6 2.2l2.1 3.4c1.6 2.5 1.6 4.5-1.6 6-1.9.9-4.1 1.8-5.1 3.8-1.4 3 1.7 7.3 5.2 7.3 7.1 0 6.5-.7 6.6 6.8.1 3.3-1 7.4 4.8 7.2 2.4-.1 3.1-1.3 3.7-3.2.7-2.1.3-3.4-1.7-4.5-1.8-1-5.1-1.3-4.6-3.8.5-3 2.3-5.9 4-8.5 1.2-1.8 2.6.2 3.9.6 1.9.5 3.5 2.8 5.4 1.9 2.9-1.5 4.6-3.7 1.8-7.1-1-1.3-3.3-3.3-1.3-5.1 2.3-2.1 4.8-4.4 8-4.8 2-.2 2.7 2.4 3.4 3.9 1.8 4 4.6 1.9 7.2 1.7 3.2-.3 2.1-2.8 2.4-4.6.3-1.8-1.2-4.6 1.5-5.1 3.2-.6 6.7-1.1 9.7.5 1.5.8.8 3.1.6 4.7-.3 3.2 1.4 4.3 4.1 5.1 3.1.9 3.5-1.5 4.1-3.1 1.8-4.5 4.4-3.5 7.4-1.6 3 1.8 6.2 3.4 3.1 7.5-1.6 2.1-2.2 3.8.1 6 2.3 2.3 4.2 1.5 6.2 0 5.2-4 5.6 1.5 7.4 3.8 1.9 2.3 2.5 4.8-1.2 6.3-2.8 1.1-3.7 3.1-3.1 5.9.6 3.1 3 2.8 5.1 2.6 5.9-.5 4.6 3.6 4.9 7 .4 3.8-.8 5.6-4.9 5.1-2.4-.3-4.4-.1-5.2 3.1-.8 3.1.4 4.1 2.7 5.2 2.6 1.3 4.6 3.1 2.1 6.1-2 2.4-2.5 7.9-7.9 4.4-2.2-1.4-3.9-1.7-6 .6-2 2.2-1.6 3.8-.1 5.6 2.2 2.6 1.4 4.5-1.3 6-1.2.6-2.4 1.2-3.4 2-2.4 2-3.8 1.8-5.2-1.2-.7-1.6-1.5-4-4.1-3.8-3.2.3-5.4 1.6-4.7 5.4.6 3.4-.7 4.7-4.4 4.7-4.6 0-9 .5-7.7-6.4.5-2.6-1.9-2.7-3.5-3.4-2.2-.9-3.6.3-4.4 2.1-1.4 3.4-3.5 4.9-7.1 3.6-.9-3-4.1-3.2-5.7-5.4zm-69.3-17c16.6-1 29.2-12.1 28.9-29-.3-18.3-11.5-29.1-29.2-29.6-17.1-.4-28.8 12.4-29.3 29a29.6 29.6 0 0 0 29.6 29.6zm119.4-18c1.1-12.8-11.3-23.7-23.2-23.2-13.3.5-23.9 10.5-23.8 23.7a24.6 24.6 0 0 0 23.8 23.5c13.3-.1 24.5-11.6 23.2-24z"/>
	<path fill="#465461" d="M225 140c.5 1.2.7 2.6 1.4 3.7 1.4 2.2 1.5 4-1.2 5.2-1.3.6-2.3 1.4-1.6 3.1.6 1.4 1.5 2.2 3 2 2.6-.2 3.6.9 3.5 3.5-.1 2.4.2 4.8-3.4 4.6-2.1-.1-2.8 1.7-3.2 3.3-.5 1.7 1 2.4 2.2 2.8 2.4.9 2.4 2.4 1.2 4.3-1.1 1.7-1.6 4.4-4.7 3-1.6-.7-3.1-2.1-4.9-.1-1.6 1.7-.4 3.1.3 4.5 1.5 3-.9 3.7-2.8 4.8-1.7 1.1-3.3 1.7-4.3-.9-.6-1.3-1.1-2.9-3.2-2.2-1.7.6-2.3 1.7-2.2 3.4.3 3.4-2.2 3.1-4.3 3.1-2.1 0-4.6.6-4.5-2.9 0-1.3.1-2.8-1.7-3.1-1.7-.3-2.9.1-3.7 1.8-.8 1.7-1.9 2.9-3.8 1.4-1.6-1.3-4.4-1.6-3.4-5.1 1.2-4.7-.3-6.1-4.6-4-2.5 1.2-3-.3-3.8-1.6-1-1.6-2.7-3-.7-5.2 4.2-4.7 4-5.3-1.7-6.2-2.8-.4-2.5-2.1-2.5-3.9 0-2-.4-4.2 2.8-4.1 1.9.1 3.8-.1 4.1-2.6.3-2.1-1-3-2.7-3.7-2-.9-2.5-2-.9-3.7 1.4-1.5 1.2-5.1 4.8-3.3 1.4.7 2.8 1.9 4.5.2 1.7-1.6.8-3-.1-4.4-1.9-3.2 1-3.9 2.7-5.3 2.2-1.8 3.3-.2 4.3 1.4 1 1.5 1.8 2.6 3.9 1.8 2-.7 2.6-1.8 2.5-3.7-.2-3.8 2.5-3.5 5.1-3.7 2.8-.1 4 .8 3.8 3.7-.3 3.5 2.8 4.8 4.2 2.7 4.2-6.2 6.7-1.4 9.8.7-1.6 1.8-3.1 3.8-1.2 6.1 1.8 2.2 3.6 0 5.3-.6.4-.5 1.1-.6 1.7-.8zm-8.2 18.6c-1.2-8.9-6.3-15.9-16.3-16.4-8.3-.4-16.3 7.7-16.5 16.2-.2 7.9 7.8 16.3 15.7 16.6 8.3.2 17-8.2 17.1-16.4z"/>
	<path fill="#7d7b42" d="M149.7 118c-16 .1-30-13.5-29.5-29.5.5-16.6 12.2-29.5 29.3-29 17.7.5 29 11.3 29.2 29.6.1 16.7-12.5 27.9-29 28.9zM169 88.9c1.5-10.1-9.9-20.4-19.6-20.1-12 .4-20.4 9.4-20.1 19.8.3 12.6 8.5 20 20.4 20.1A19 19 0 0 0 169 88.9zM269.1 100c1.3 12.4-9.9 23.9-23.2 23.9a24.6 24.6 0 0 1-23.8-23.5c0-13.2 10.5-23.1 23.8-23.7 11.9-.3 24.3 10.5 23.2 23.3zm-23.3 16.1c9.1 0 16.1-6.8 16.2-15.8.1-8.8-7.2-16.2-16-16.2-9 0-16 7-16 16.1 0 9.5 6.2 15.8 15.8 15.9zM225 140l-1.9.5c-1.8.6-3.5 2.7-5.3.6-1.9-2.3-.4-4.3 1.2-6.1 1.6 2.2 4.8 2.4 6 5zm-8.2 18.6c-.1 8.3-8.8 16.7-17 16.3-7.9-.3-15.9-8.7-15.7-16.6.2-8.4 8.2-16.5 16.5-16.2 9.9.5 15 7.6 16.2 16.5zm-5.7-.4c-.1-6-4.7-11-10.5-11.1-5.3-.1-11.3 5.7-11.4 11.2-.1 5.8 5 10.7 11.3 10.7 6.9.1 10.6-3.8 10.6-10.8z"/>
	<path fill="#465461" d="M169 88.9a19 19 0 0 1-19.3 19.8c-11.9-.1-20.1-7.6-20.4-20.1-.3-10.4 8.1-19.4 20.1-19.8 9.8-.4 21.1 9.9 19.6 20.1zm-11-.2c.1-4.1-4-8.4-8.1-8.7-4.5-.3-8.9 4.1-8.9 8.8 0 4.7 3.3 8 8.2 8.1 4.3.2 8.6-3.9 8.8-8.2zm87.8 27.4c-9.6 0-15.8-6.3-15.8-16 0-9.1 7-16.1 16-16.1 8.8 0 16.1 7.4 16 16.2-.1 9-7.1 15.9-16.2 15.9zm.2-9.1c3.5 0 7-3.7 6.9-7.1-.1-3.4-3.5-6.6-7-6.6-3.7 0-7 3.5-6.9 7.2.1 3.3 3.6 6.5 7 6.5zm-34.9 51.2c.1 7-3.7 10.8-10.6 10.8-6.3 0-11.4-4.9-11.3-10.7.1-5.4 6.1-11.3 11.4-11.2 5.7.2 10.4 5.1 10.5 11.1zm-10.5 4.8c2.9-.3 4.5-1.8 4.4-4.8-.1-2.8-1.8-4.2-4.5-4.2-3 0-4.5 1.8-4.4 4.7 0 2.8 1.7 4.1 4.5 4.3z"/>
	<path fill="#7d7b42" d="M158 88.7c-.1 4.3-4.5 8.4-8.8 8.3-4.8-.1-8.2-3.4-8.2-8.1 0-4.7 4.4-9.1 8.9-8.8 4.1.2 8.2 4.5 8.1 8.6zm88 18.3c-3.4 0-6.9-3.3-7-6.5a7.3 7.3 0 0 1 6.9-7.2c3.4 0 6.9 3.2 7 6.6.1 3.4-3.4 7.1-6.9 7.1zm-45.4 56c-2.8-.2-4.4-1.5-4.6-4.3-.1-3 1.4-4.7 4.4-4.7 2.7 0 4.4 1.4 4.5 4.2.2 3-1.5 4.5-4.3 4.8z"/>
</svg>