<?xml version="1.0" encoding="utf-8"?>
<!-- Generator: Adobe Illustrator 22.1.0, SVG Export Plug-In . SVG Version: 6.00 Build 0)  -->
<svg version="1.1" id="Layer_1" xmlns="http://www.w3.org/2000/svg" xmlns:xlink="http://www.w3.org/1999/xlink" x="0px" y="0px"
	 viewBox="0 0 343 326" style="enable-background:new 0 0 343 326;" xml:space="preserve">
<style type="text/css">
	.st0{fill:#7D7B42;}
	.st1{fill:#465461;}
</style>
<g>
	<path class="st0" d="M73,325.8c-8.4-8.3-8.3-18-4.3-28.1c2.3-5.9,1.1-10.3-4.1-13.8c-2.2-1.5-4.5-4.2-3.4-6.7c2-4.4,0.3-7.3-2-10.6
		c-1.3-1.9-1.4-4.3-0.3-6.7c1.7-3.3,1.1-6.8,0.2-10.2c-1-3.8-2.9-5.8-7.3-5.9c-11.1-0.2-15.3-7.1-10.6-17
		c6-12.9,11.2-26.3,19.9-37.9c1.9-2.6,3.1-5.7,1.1-8.9c-4.8-7.3-3.5-15.5-2.6-23.3c1.5-13.3,4.6-26.4,7.7-39.5c0.5-2,0.2-3.2-1-4.9
		c-4.6-6.2-8.5-12.7-10.6-20.2C51.1,76.8,56.6,64.6,68,54.8c23.4-20.1,50.5-33,80.4-40.1c18.8-4.5,37.7-5.1,56.8-2
		c13.6,2.2,27.1,4.7,40.4,8.1c16.9,4.4,32.2,10.7,43.4,25.3c10.7,14,22.8,26.9,30.2,43.1c5.3,11.7,6.2,23.8,5.2,36.5
		c-0.9,10.9-1.4,21.8-3.4,32.6c-4.4,24-13.9,46-25.2,67.4c-8.2,15.4-17.1,30.5-21.3,47.8c-0.9,3.7-0.6,7.3-0.6,10.9
		c0,3.1-1,4.1-3.8,2.6c-3.3-1.7-4.1-0.4-4.3,3c-0.6,12.4,2.2,24.1,6.1,35.6c-7.5,0.1-15,0.2-22.5,0.2c-56.8,0-113.7,0-170.5,0
		C77,326,75,325.9,73,325.8z M219,135c-3.1-2-5.6-6.8-9.8-0.7c-1.4,2.1-4.5,0.8-4.2-2.7c0.2-2.9-1-3.8-3.8-3.7
		c-2.6,0.1-5.3-0.1-5.1,3.7c0.1,1.9-0.5,3-2.5,3.7c-2.2,0.8-3-0.3-3.9-1.8c-1-1.6-2.1-3.2-4.3-1.4c-1.7,1.4-4.6,2.1-2.7,5.3
		c0.8,1.4,1.7,2.8,0.1,4.4c-1.7,1.7-3.1,0.5-4.5-0.2c-3.6-1.8-3.5,1.8-4.8,3.3c-1.6,1.7-1.1,2.9,0.9,3.7c1.6,0.7,3,1.6,2.7,3.7
		c-0.4,2.5-2.2,2.6-4.1,2.6c-3.2-0.1-2.8,2.1-2.8,4.1c0,1.8-0.3,3.5,2.5,3.9c5.7,0.8,5.9,1.5,1.7,6.2c-2,2.3-0.3,3.7,0.7,5.2
		c0.8,1.3,1.3,2.8,3.8,1.6c4.3-2.1,5.8-0.7,4.6,4c-0.9,3.5,1.8,3.8,3.4,5.1c1.9,1.5,3,0.3,3.8-1.4c0.8-1.6,2-2,3.7-1.8
		c1.9,0.3,1.8,1.8,1.7,3.1c-0.1,3.5,2.5,2.9,4.5,2.9c2.2,0.1,4.6,0.4,4.3-3.1c-0.1-1.7,0.5-2.9,2.2-3.4c2.1-0.7,2.7,0.9,3.2,2.2
		c1.1,2.5,2.6,1.9,4.3,0.9c1.8-1.1,4.2-1.8,2.8-4.8c-0.7-1.4-1.9-2.7-0.3-4.5c1.8-1.9,3.3-0.6,4.9,0.1c3.1,1.4,3.6-1.3,4.7-3
		c1.2-1.9,1.2-3.3-1.2-4.3c-1.2-0.5-2.7-1.1-2.2-2.8c0.5-1.6,1.2-3.4,3.2-3.3c3.6,0.2,3.3-2.2,3.4-4.6c0.1-2.6-0.9-3.7-3.5-3.5
		c-1.6,0.1-2.5-0.6-3-2c-0.7-1.7,0.4-2.5,1.6-3.1c2.7-1.3,2.6-3,1.2-5.2c-0.7-1.1-1-2.4-1.4-3.7c3.6,1.3,5.8-0.2,7.1-3.6
		c0.7-1.8,2.2-3,4.4-2.1c1.6,0.7,4,0.8,3.5,3.4c-1.3,6.9,3.1,6.4,7.7,6.4c3.6,0,4.9-1.3,4.4-4.7c-0.6-3.8,1.6-5.1,4.7-5.4
		c2.6-0.2,3.3,2.2,4.1,3.8c1.3,3,2.8,3.2,5.2,1.2c1-0.8,2.3-1.4,3.4-2c2.7-1.5,3.5-3.3,1.3-6c-1.5-1.8-2-3.5,0.1-5.6
		c2.1-2.2,3.8-2,6-0.6c5.4,3.5,5.8-2,7.9-4.4c2.6-3,0.6-4.8-2.1-6.1c-2.3-1.1-3.5-2.2-2.7-5.2c0.8-3.3,2.9-3.4,5.2-3.1
		c4.1,0.5,5.3-1.3,4.9-5.1c-0.3-3.3,1-7.5-4.9-7c-2.1,0.2-4.5,0.4-5.1-2.6c-0.5-2.8,0.3-4.9,3.1-5.9c3.7-1.4,3.1-3.9,1.2-6.3
		c-1.9-2.2-2.3-7.8-7.4-3.8c-1.9,1.5-3.9,2.3-6.2,0c-2.3-2.2-1.6-3.9-0.1-6c3.1-4.1-0.1-5.7-3.1-7.5c-3.1-1.8-5.7-2.8-7.4,1.6
		c-0.6,1.6-1,4-4.1,3.1c-2.7-0.8-4.5-1.9-4.1-5.1c0.2-1.6,0.8-3.9-0.6-4.7c-3-1.6-6.6-1-9.7-0.5c-2.7,0.5-1.2,3.3-1.5,5.1
		c-0.3,1.8,0.8,4.3-2.4,4.6c-2.6,0.2-5.4,2.3-7.2-1.7c-0.7-1.5-1.4-4.1-3.4-3.9c-3.2,0.4-5.7,2.7-8,4.8c-2,1.8,0.3,3.9,1.3,5.1
		c2.8,3.5,1.1,5.7-1.8,7.1c-1.9,1-3.6-1.3-5.4-1.9c-1.3-0.4-2.8-2.4-3.9-0.6c-1.7,2.6-3.4,5.5-4,8.5c-0.5,2.5,2.8,2.9,4.6,3.8
		c2,1.1,2.4,2.4,1.7,4.5c-0.6,1.8-1.3,3.1-3.7,3.2c-5.8,0.2-4.8-3.9-4.8-7.2c-0.1-7.6,0.5-6.8-6.6-6.8c-3.5,0-6.6-4.3-5.2-7.3
		c1-2,3.2-2.9,5.1-3.8c3.1-1.5,3.1-3.5,1.6-6c-0.7-1.1-1.5-2.2-2.1-3.4c-3.2-5.5-3.4-5.7-8.6-2.2c-2.9,1.9-4.8,1.6-7.3-0.9
		c-3-2.9-1.2-5,0.4-7.4c2.1-3,2.9-5.7-1.6-7.4c-1.1-0.4-2-1.1-2.9-1.9c-3.7-3-6.4-3.2-8.4,2c-1,2.8-2.8,4.8-6.9,3.6
		c-4.2-1.1-3.7-3.8-3.3-6.4c0.8-5.3-1.6-6.9-6.4-6.1c-0.6,0.1-1.3,0-2,0c-6.6,0-6.7,0-6.6,6.8c0,2.8-0.2,4.4-3.6,5.8
		c-5.7,2.4-7.6-1-9.4-4.7c-1.6-3.2-3.5-3.7-6.2-1.4c-0.9,0.7-1.9,1.3-2.9,1.9c-5.7,3.7-5.7,3.8-2.1,9.3c1.5,2.2,3,4.1,0.2,6.9
		c-2.6,2.5-4.5,2.5-7.3,0.7c-5.9-3.8-6-3.7-9.1,2.5c-3.4,6.7-3.4,6.8,3.1,10.7c2.6,1.5,3.1,3.2,2.3,6c-0.8,2.8-2.2,3.6-5,3.6
		c-7.2,0.1-7.2,0.2-7.1,7.2c0,0.3,0,0.7,0,1c0,6.7,0.1,7,6.7,6.6c4.2-0.3,5.5,1.7,6.1,5.1c0.6,3.5-2.5,3.9-4.3,5.2
		c-1.5,1.2-4.7,1.8-4,3.8c1.4,3.8,3.3,7.9,6.6,10.3c2.1,1.5,4.3-1,6.1-2.2c2.4-1.6,4.2-1.2,6.2,0.7c1.9,1.8,2.8,3.2,1.4,6
		c-3.3,6.5-3.2,6.6,3.4,10.4c5.9,3.4,6,3.5,8.8-2.4c1.5-3.2,3.1-3.9,6.6-2.9c3.1,0.8,3.4,2.5,3.5,5c0.1,2.2-1.2,5.7,0.9,6.5
		c4,1.5,8.7,1.2,12.7,0.1c2.6-0.7,1-4.1,1.2-6.3c0.2-2.3-0.2-4.5,3.1-5.3c3.1-0.8,5.3-0.9,6.9,2.4c0.8,1.7,1.3,4.5,3.5,4.5
		c4.2,0.1,7.3-3,10.4-5.3c2.9-2.2-0.1-4.2-1.1-6c-1.5-2.7-2.1-4.8,0.6-7.4c2.8-2.8,4.8-1.7,7.4,0c1.7,1.1,3.7,3.2,5.7,1
		c2.6-2.8,4.5-6.4,5.3-10c0.6-2.9-3.3-3.3-5.2-4.5c-2.9-1.8-2.3-3.7-1.8-6.4c0.6-3,2.2-3,4.5-3.2c4.7-0.5,6.3,1.3,5.8,5.8
		c-0.4,2.9-0.3,5.8,4.2,5.3c2.1-0.2,4.8-0.9,5.7,2.4c0.9,3.4-1.1,4.7-3.6,6.1c-1.1,0.6-3.5,1.2-2.7,3c1.3,2.8,2.9,5.7,5.1,7.9
		c1.7,1.7,3.6-0.7,5.2-1.7c2.1-1.3,3.6-0.6,5.3,0.9c1.7,1.5,1.8,3,0.6,4.8C220.9,131.9,219.9,133.5,219,135z"/>
	<path class="st1" d="M219,135c0.9-1.5,1.9-3.1,2.8-4.6c1.2-1.8,1.1-3.3-0.6-4.8c-1.7-1.5-3.2-2.2-5.3-0.9c-1.6,1-3.5,3.3-5.2,1.7
		c-2.2-2.1-3.8-5-5.1-7.9c-0.8-1.7,1.6-2.3,2.7-3c2.5-1.4,4.5-2.8,3.6-6.1c-0.9-3.3-3.6-2.6-5.7-2.4c-4.5,0.5-4.5-2.4-4.2-5.3
		c0.6-4.5-1.1-6.4-5.8-5.8c-2.3,0.3-4,0.3-4.5,3.2c-0.5,2.7-1.1,4.5,1.8,6.4c1.9,1.2,5.8,1.6,5.2,4.5c-0.8,3.6-2.7,7.2-5.3,10
		c-2.1,2.2-4,0.2-5.7-1c-2.5-1.7-4.6-2.7-7.4,0c-2.7,2.6-2.1,4.7-0.6,7.4c1,1.8,4,3.8,1.1,6c-3.1,2.3-6.2,5.4-10.4,5.3
		c-2.2,0-2.7-2.9-3.5-4.5c-1.7-3.3-3.8-3.2-6.9-2.4c-3.3,0.8-2.9,3-3.1,5.3c-0.2,2.2,1.4,5.6-1.2,6.3c-4.1,1.1-8.8,1.4-12.7-0.1
		c-2.1-0.8-0.8-4.3-0.9-6.5c-0.1-2.5-0.4-4.2-3.5-5c-3.5-1-5.1-0.2-6.6,2.9c-2.8,5.9-3,5.8-8.8,2.4c-6.6-3.8-6.8-3.9-3.4-10.4
		c1.4-2.7,0.5-4.2-1.4-6c-2-1.9-3.7-2.3-6.2-0.7c-1.8,1.2-4,3.8-6.1,2.2c-3.4-2.5-5.2-6.5-6.6-10.3c-0.7-2,2.5-2.6,4-3.8
		c1.8-1.4,5-1.8,4.3-5.2c-0.6-3.5-1.9-5.4-6.1-5.1C95,97.3,95,96.9,95,90.3c0-0.3,0-0.7,0-1c-0.1-7-0.1-7.1,7.1-7.2
		c2.7,0,4.2-0.8,5-3.6c0.8-2.8,0.3-4.5-2.3-6c-6.5-3.9-6.5-4-3.1-10.7c3.1-6.2,3.2-6.3,9.1-2.5c2.8,1.8,4.8,1.8,7.3-0.7
		c2.8-2.8,1.2-4.6-0.2-6.9c-3.6-5.5-3.6-5.5,2.1-9.3c1-0.6,2-1.2,2.9-1.9c2.7-2.3,4.6-1.8,6.2,1.4c1.9,3.7,3.7,7.1,9.4,4.7
		c3.4-1.4,3.6-3,3.6-5.8c0-6.8,0-6.8,6.6-6.8c0.7,0,1.3,0.1,2,0c4.9-0.8,7.2,0.8,6.4,6.1c-0.4,2.6-0.9,5.3,3.3,6.4
		c4.1,1.1,5.9-0.9,6.9-3.6c2-5.2,4.7-5,8.4-2c0.9,0.7,1.9,1.5,2.9,1.9c4.5,1.7,3.7,4.3,1.6,7.4c-1.6,2.3-3.4,4.4-0.4,7.4
		c2.5,2.5,4.4,2.8,7.3,0.9c5.2-3.5,5.5-3.3,8.6,2.2c0.7,1.1,1.4,2.2,2.1,3.4c1.6,2.5,1.6,4.5-1.6,6c-1.9,0.9-4.1,1.8-5.1,3.8
		c-1.4,3,1.7,7.3,5.2,7.3c7.1,0,6.5-0.7,6.6,6.8c0.1,3.3-1,7.4,4.8,7.2c2.4-0.1,3.1-1.3,3.7-3.2c0.7-2.1,0.3-3.4-1.7-4.5
		c-1.8-1-5.1-1.3-4.6-3.8c0.5-3,2.3-5.9,4-8.5c1.2-1.8,2.6,0.2,3.9,0.6c1.9,0.5,3.5,2.8,5.4,1.9c2.9-1.5,4.6-3.7,1.8-7.1
		c-1-1.3-3.3-3.3-1.3-5.1c2.3-2.1,4.8-4.4,8-4.8c2-0.2,2.7,2.4,3.4,3.9c1.8,4,4.6,1.9,7.2,1.7c3.2-0.3,2.1-2.8,2.4-4.6
		c0.3-1.8-1.2-4.6,1.5-5.1c3.2-0.6,6.7-1.1,9.7,0.5c1.5,0.8,0.8,3.1,0.6,4.7c-0.3,3.2,1.4,4.3,4.1,5.1c3.1,0.9,3.5-1.5,4.1-3.1
		c1.8-4.5,4.4-3.5,7.4-1.6c3,1.8,6.2,3.4,3.1,7.5c-1.6,2.1-2.2,3.8,0.1,6c2.3,2.3,4.2,1.5,6.2,0c5.2-4,5.6,1.5,7.4,3.8
		c1.9,2.3,2.5,4.8-1.2,6.3c-2.8,1.1-3.7,3.1-3.1,5.9c0.6,3.1,3,2.8,5.1,2.6c5.9-0.5,4.6,3.6,4.9,7c0.4,3.8-0.8,5.6-4.9,5.1
		c-2.4-0.3-4.4-0.1-5.2,3.1c-0.8,3.1,0.4,4.1,2.7,5.2c2.6,1.3,4.6,3.1,2.1,6.1c-2,2.4-2.5,7.9-7.9,4.4c-2.2-1.4-3.9-1.7-6,0.6
		c-2,2.2-1.6,3.8-0.1,5.6c2.2,2.6,1.4,4.5-1.3,6c-1.2,0.6-2.4,1.2-3.4,2c-2.4,2-3.8,1.8-5.2-1.2c-0.7-1.6-1.5-4-4.1-3.8
		c-3.2,0.3-5.4,1.6-4.7,5.4c0.6,3.4-0.7,4.7-4.4,4.7c-4.6,0-9,0.5-7.7-6.4c0.5-2.6-1.9-2.7-3.5-3.4c-2.2-0.9-3.6,0.3-4.4,2.1
		c-1.4,3.4-3.5,4.9-7.1,3.6l0,0C223.8,137.4,220.6,137.2,219,135C219,135,219,135,219,135z M149.7,118c16.6-1,29.2-12.1,28.9-29
		c-0.3-18.3-11.5-29.1-29.2-29.6c-17.1-0.4-28.8,12.4-29.3,29C119.7,104.5,133.6,118.1,149.7,118z M269.1,100
		c1.1-12.8-11.3-23.7-23.2-23.2c-13.3,0.5-23.9,10.5-23.8,23.7c0,12.3,11.3,23.5,23.8,23.5C259.2,123.9,270.4,112.4,269.1,100z"/>
	<path class="st1" d="M225,140c0.5,1.2,0.7,2.6,1.4,3.7c1.4,2.2,1.5,4-1.2,5.2c-1.3,0.6-2.3,1.4-1.6,3.1c0.6,1.4,1.5,2.2,3,2
		c2.6-0.2,3.6,0.9,3.5,3.5c-0.1,2.4,0.2,4.8-3.4,4.6c-2.1-0.1-2.8,1.7-3.2,3.3c-0.5,1.7,1,2.4,2.2,2.8c2.4,0.9,2.4,2.4,1.2,4.3
		c-1.1,1.7-1.6,4.4-4.7,3c-1.6-0.7-3.1-2.1-4.9-0.1c-1.6,1.7-0.4,3.1,0.3,4.5c1.5,3-0.9,3.7-2.8,4.8c-1.7,1.1-3.3,1.7-4.3-0.9
		c-0.6-1.3-1.1-2.9-3.2-2.2c-1.7,0.6-2.3,1.7-2.2,3.4c0.3,3.4-2.2,3.1-4.3,3.1c-2.1,0-4.6,0.6-4.5-2.9c0-1.3,0.1-2.8-1.7-3.1
		c-1.7-0.3-2.9,0.1-3.7,1.8c-0.8,1.7-1.9,2.9-3.8,1.4c-1.6-1.3-4.4-1.6-3.4-5.1c1.2-4.7-0.3-6.1-4.6-4c-2.5,1.2-3-0.3-3.8-1.6
		c-1-1.6-2.7-3-0.7-5.2c4.2-4.7,4-5.3-1.7-6.2c-2.8-0.4-2.5-2.1-2.5-3.9c0-2-0.4-4.2,2.8-4.1c1.9,0.1,3.8-0.1,4.1-2.6
		c0.3-2.1-1-3-2.7-3.7c-2-0.9-2.5-2-0.9-3.7c1.4-1.5,1.2-5.1,4.8-3.3c1.4,0.7,2.8,1.9,4.5,0.2c1.7-1.6,0.8-3-0.1-4.4
		c-1.9-3.2,1-3.9,2.7-5.3c2.2-1.8,3.3-0.2,4.3,1.4c1,1.5,1.8,2.6,3.9,1.8c2-0.7,2.6-1.8,2.5-3.7c-0.2-3.8,2.5-3.5,5.1-3.7
		c2.8-0.1,4,0.8,3.8,3.7c-0.3,3.5,2.8,4.8,4.2,2.7c4.2-6.2,6.7-1.4,9.8,0.7c0,0,0,0,0,0c-1.6,1.8-3.1,3.8-1.2,6.1
		c1.8,2.2,3.6,0,5.3-0.6C223.7,140.3,224.4,140.2,225,140L225,140z M216.8,158.6c-1.2-8.9-6.3-15.9-16.3-16.4
		c-8.3-0.4-16.3,7.7-16.5,16.2c-0.2,7.9,7.8,16.3,15.7,16.6C208,175.2,216.7,166.8,216.8,158.6z"/>
	<path class="st0" d="M149.7,118c-16,0.1-30-13.5-29.5-29.5c0.5-16.6,12.2-29.5,29.3-29c17.7,0.5,29,11.3,29.2,29.6
		C178.8,105.8,166.2,117,149.7,118z M169,88.9c1.5-10.1-9.9-20.4-19.6-20.1c-12,0.4-20.4,9.4-20.1,19.8c0.3,12.6,8.5,20,20.4,20.1
		C160.4,108.8,169.7,100,169,88.9z"/>
	<path class="st0" d="M269.1,100c1.3,12.4-9.9,23.9-23.2,23.9c-12.5,0-23.8-11.2-23.8-23.5c0-13.2,10.5-23.1,23.8-23.7
		C257.8,76.4,270.2,87.2,269.1,100z M245.8,116.1c9.1,0,16.1-6.8,16.2-15.8c0.1-8.8-7.2-16.2-16-16.2c-9,0-16,7-16,16.1
		C230,109.7,236.2,116,245.8,116.1z"/>
	<path class="st0" d="M225,140c-0.6,0.2-1.3,0.3-1.9,0.5c-1.8,0.6-3.5,2.7-5.3,0.6c-1.9-2.3-0.4-4.3,1.2-6.1
		C220.6,137.2,223.8,137.4,225,140z"/>
	<path class="st0" d="M216.8,158.6c-0.1,8.3-8.8,16.7-17,16.3c-7.9-0.3-15.9-8.7-15.7-16.6c0.2-8.4,8.2-16.5,16.5-16.2
		C210.5,142.6,215.6,149.7,216.8,158.6z M211.1,158.2c-0.1-6-4.7-11-10.5-11.1c-5.3-0.1-11.3,5.7-11.4,11.2
		c-0.1,5.8,5,10.7,11.3,10.7C207.4,169.1,211.1,165.2,211.1,158.2z"/>
	<path class="st1" d="M169,88.9c0.7,11.2-8.7,19.9-19.3,19.8c-11.9-0.1-20.1-7.6-20.4-20.1c-0.3-10.4,8.1-19.4,20.1-19.8
		C159.2,68.4,170.5,78.7,169,88.9z M158,88.7c0.1-4.1-4-8.4-8.1-8.7c-4.5-0.3-8.9,4.1-8.9,8.8c0,4.7,3.3,8,8.2,8.1
		C153.5,97.1,157.8,93,158,88.7z"/>
	<path class="st1" d="M245.8,116.1c-9.6,0-15.8-6.3-15.8-16c0-9.1,7-16.1,16-16.1c8.8,0,16.1,7.4,16,16.2
		C261.9,109.2,254.9,116.1,245.8,116.1z M246,107c3.5,0,7-3.7,6.9-7.1c-0.1-3.4-3.5-6.6-7-6.6c-3.7,0-7,3.5-6.9,7.2
		C239.1,103.8,242.6,107,246,107z"/>
	<path class="st1" d="M211.1,158.2c0.1,7-3.7,10.8-10.6,10.8c-6.3,0-11.4-4.9-11.3-10.7c0.1-5.4,6.1-11.3,11.4-11.2
		C206.3,147.3,211,152.2,211.1,158.2z M200.6,163c2.9-0.3,4.5-1.8,4.4-4.8c-0.1-2.8-1.8-4.2-4.5-4.2c-3,0-4.5,1.8-4.4,4.7
		C196.1,161.5,197.8,162.8,200.6,163z"/>
	<path class="st0" d="M158,88.7c-0.1,4.3-4.5,8.4-8.8,8.3c-4.8-0.1-8.2-3.4-8.2-8.1c0-4.7,4.4-9.1,8.9-8.8
		C154,80.3,158.1,84.6,158,88.7z"/>
	<path class="st0" d="M246,107c-3.4,0-6.9-3.3-7-6.5c-0.1-3.7,3.2-7.1,6.9-7.2c3.4,0,6.9,3.2,7,6.6C253,103.3,249.5,107,246,107z"/>
	<path class="st0" d="M200.6,163c-2.8-0.2-4.4-1.5-4.6-4.3c-0.1-3,1.4-4.7,4.4-4.7c2.7,0,4.4,1.4,4.5,4.2
		C205.1,161.2,203.4,162.7,200.6,163z"/>
</g>
</svg>
